PathFileType	4	(X/Y/Z)	OpenSim_Sub06_CSBaseline_Magnet.trc
DataRate	CameraRate	NumFrames	NumMarkers	Units	OrigDataRate	OrigDataStartFrame	OrigNumFrames
100	100	26	8	m	100	6370	8492
Frame#	Time	torso_imu_offset_imu	pelvis_imu_offset_imu	tibia_r_imu_offset_imu	femur_r_imu_offset_imu	tibia_l_imu_offset_imu	femur_l_imu_offset_imu	toes_r_imu_offset_imu	toes_l_imu_offset_imu
				X1	Y1	Z1	X2	Y2	Z2	X3	Y3	Z3	X4	Y4	Z4	X5	Y5	Z5	X6	Y6	Z6	X7	Y7	Z7	X8		Y8	Z8	

6370	63.69000000	-0.95092161	-0.15465948	0.05805028	-0.52513811	0.18487715	-0.76045197	-0.50760436	-0.63650782	-0.20576728	-0.69813594	-0.41879172	0.14813583	-0.60504168	0.56316694	0.00328470	-0.49923398	0.09765890	0.43510948	-0.57729835	-0.30810458	-0.56719682	-0.76846396	0.02540791	-0.28578534
6371	63.70000000	-0.95365977	-0.15052450	0.06333977	-0.52357998	0.18253940	-0.75865103	-0.50976811	-0.64018410	-0.20828118	-0.69362129	-0.42467235	0.14831497	-0.63155047	0.53395334	0.00661068	-0.49534319	0.10136035	0.43946347	-0.58229419	-0.31601790	-0.57060377	-0.76287643	0.00153709	-0.30972809
6372	63.71000000	-0.95159392	-0.15412509	0.06413495	-0.52119325	0.18678663	-0.75638505	-0.50020670	-0.64259617	-0.20592291	-0.69127228	-0.43336020	0.15552651	-0.65549920	0.51032910	0.01507890	-0.49093947	0.10351115	0.45049590	-0.58682031	-0.32261528	-0.57706292	-0.75329731	-0.01679477	-0.33711129
6373	63.72000000	-0.95137596	-0.15471411	0.06824799	-0.52328516	0.18494937	-0.75357261	-0.49267763	-0.64646752	-0.20773426	-0.68701804	-0.43370690	0.15154456	-0.67514926	0.47499400	0.01721983	-0.48818785	0.11210424	0.45373269	-0.58927925	-0.32642126	-0.57596784	-0.74799597	-0.02772006	-0.35526162
6374	63.73000000	-0.94997670	-0.15265873	0.06848167	-0.52337711	0.18681677	-0.75810141	-0.49083577	-0.65088236	-0.20969660	-0.68517484	-0.43529353	0.15731016	-0.68857149	0.45225594	0.02478144	-0.49486399	0.11457966	0.45154299	-0.58492774	-0.33654554	-0.57108530	-0.74122594	-0.04467140	-0.37758851
6375	63.74000000	-0.94346112	-0.15003026	0.06830029	-0.52543382	0.18836252	-0.75703009	-0.48065578	-0.65264942	-0.21385279	-0.67639638	-0.44299903	0.16291868	-0.70062151	0.42568222	0.03103396	-0.49128062	0.12025632	0.44716284	-0.58656882	-0.34103532	-0.57482349	-0.72969431	-0.06009855	-0.39376293
6376	63.75000000	-0.94472465	-0.15422132	0.07025163	-0.52595786	0.19555433	-0.74705321	-0.47712117	-0.65900592	-0.21838901	-0.67798547	-0.45371157	0.16339542	-0.71649534	0.41194539	0.03457175	-0.49327751	0.13309946	0.44452715	-0.58462619	-0.34499377	-0.57510607	-0.71954223	-0.07773559	-0.41116353
6377	63.76000000	-0.94848712	-0.15449609	0.07545943	-0.52550464	0.18520836	-0.75576247	-0.47788169	-0.66086253	-0.22245416	-0.66975404	-0.45460506	0.16927413	-0.72258253	0.39045336	0.03197439	-0.49413768	0.14222543	0.44221110	-0.58610384	-0.34925384	-0.57477812	-0.71263431	-0.08516311	-0.42958581
6378	63.77000000	-0.95575334	-0.15663755	0.06843813	-0.52793686	0.19248264	-0.74954936	-0.46569127	-0.66925744	-0.22945036	-0.67525002	-0.45393392	0.17965302	-0.73788594	0.37639004	0.02369309	-0.49197591	0.15111727	0.43786069	-0.58834681	-0.35457932	-0.57691142	-0.70390746	-0.08906376	-0.44318478
6379	63.78000000	-0.94580952	-0.15628624	0.08077092	-0.52778462	0.19111410	-0.75409835	-0.45519312	-0.66772628	-0.22505998	-0.67230814	-0.46178596	0.17132797	-0.73660547	0.36337039	0.02347087	-0.49833739	0.15738260	0.43284121	-0.58640788	-0.36891924	-0.57480501	-0.69408296	-0.09963384	-0.45709364
6380	63.79000000	-0.94677533	-0.16070730	0.08027601	-0.53001772	0.19866968	-0.74137391	-0.44394554	-0.67322179	-0.23295591	-0.66343901	-0.46680192	0.17290505	-0.73991409	0.35360669	0.02422987	-0.50151759	0.16636069	0.43698561	-0.58168542	-0.37319647	-0.57644993	-0.68918785	-0.10485032	-0.46024447
6381	63.80000000	-0.94503047	-0.15877990	0.07810783	-0.53214343	0.19978554	-0.73996179	-0.44185408	-0.67727779	-0.23363100	-0.66073836	-0.46466592	0.17335597	-0.74270371	0.35351515	0.02237950	-0.49953082	0.16648641	0.43531858	-0.58479494	-0.38740877	-0.57516226	-0.68445646	-0.10499892	-0.46182904
6382	63.81000000	-0.94496246	-0.16083599	0.07283029	-0.53633853	0.19479182	-0.74019659	-0.42768224	-0.68767547	-0.23899649	-0.66040372	-0.46807322	0.16936445	-0.74062510	0.34876427	0.01798117	-0.49585623	0.17554239	0.43643101	-0.59109588	-0.39002621	-0.56636540	-0.68816534	-0.10182640	-0.46571177
6383	63.82000000	-0.94264215	-0.15869104	0.08387130	-0.53689291	0.20462098	-0.74083443	-0.41716196	-0.69036057	-0.24669979	-0.66436642	-0.47465990	0.16242346	-0.73641534	0.35853379	0.01938838	-0.48809966	0.16538711	0.44520091	-0.59345325	-0.39963957	-0.56765783	-0.69745679	-0.08441023	-0.44637024
6384	63.83000000	-0.94873834	-0.16248868	0.07446266	-0.53712950	0.20778540	-0.73403086	-0.39837188	-0.69388350	-0.23995237	-0.66282570	-0.47526300	0.16235428	-0.73430747	0.36810073	0.01903013	-0.49275535	0.17074158	0.45298311	-0.59334956	-0.40765766	-0.56461888	-0.70686077	-0.08306861	-0.43661035
6385	63.84000000	-0.94512425	-0.16147217	0.07070818	-0.53691880	0.20931572	-0.73397808	-0.38861488	-0.70230158	-0.24726764	-0.66250846	-0.47070369	0.15565868	-0.73071245	0.37569970	0.01903969	-0.48277189	0.16819905	0.44978757	-0.59126238	-0.42423606	-0.55387098	-0.70678898	-0.07803910	-0.42928250
6386	63.85000000	-0.94681669	-0.15634212	0.07492856	-0.54105300	0.21225954	-0.72693822	-0.37866384	-0.71035970	-0.25240749	-0.66415416	-0.47467908	0.15298564	-0.72218651	0.39968583	0.01091611	-0.47731821	0.16057931	0.47125569	-0.58816253	-0.42684946	-0.54741303	-0.69093103	-0.06370016	-0.46357870
6387	63.86000000	-0.94521992	-0.16258957	0.07541646	-0.54508199	0.20558285	-0.73317269	-0.36172730	-0.72125850	-0.25187291	-0.66879055	-0.47134740	0.14893362	-0.71862198	0.40792201	0.01400939	-0.46906227	0.16691556	0.47743689	-0.59804283	-0.43830896	-0.53705073	-0.69839878	-0.07097702	-0.44435403
6388	63.87000000	-0.94113771	-0.15889977	0.07571141	-0.55183303	0.21168281	-0.72995371	-0.34869845	-0.71963696	-0.25424300	-0.66851647	-0.47061980	0.14161722	-0.70262976	0.41387136	0.01827940	-0.46575503	0.16322495	0.48335651	-0.59799518	-0.44903500	-0.52890044	-0.69460941	-0.07702938	-0.44808114
6389	63.88000000	-0.93800641	-0.16248962	0.06956680	-0.55194782	0.20052936	-0.72459262	-0.33671227	-0.72861343	-0.25392612	-0.67686061	-0.46929559	0.14342468	-0.70659683	0.42461059	0.02025624	-0.47203468	0.16466687	0.49128791	-0.60952336	-0.45928034	-0.51052929	-0.69889132	-0.06747404	-0.44797732
6390	63.89000000	-0.94428135	-0.16108377	0.06465826	-0.55156515	0.19483861	-0.72125749	-0.31560591	-0.73982907	-0.25395761	-0.67524751	-0.46124024	0.13954223	-0.69900661	0.43578582	0.02125204	-0.47329029	0.16702994	0.48468935	-0.61412422	-0.47166283	-0.49583301	-0.69652335	-0.08029312	-0.43846263
6391	63.90000000	-0.94506045	-0.15853428	0.06418343	-0.55536541	0.19348546	-0.72594532	-0.30215414	-0.74241511	-0.24915815	-0.68688724	-0.45501403	0.13158161	-0.69657001	0.44305726	0.03693882	-0.46290265	0.16931190	0.49008161	-0.62166596	-0.48400042	-0.47115783	-0.69859355	-0.07505432	-0.43970052
6392	63.91000000	-0.94281263	-0.16254828	0.06436833	-0.55993608	0.18481423	-0.72168895	-0.28955443	-0.74552375	-0.25291260	-0.69436597	-0.44844290	0.13177259	-0.68572213	0.44497765	0.06161121	-0.45746666	0.16958321	0.49541997	-0.62973517	-0.49839931	-0.45412581	-0.69920979	-0.07821156	-0.44254300
6393	63.92000000	-0.94076703	-0.16281403	0.06473745	-0.55812527	0.18456334	-0.72092488	-0.27704728	-0.75872337	-0.25511338	-0.69628767	-0.44877860	0.11991810	-0.68291869	0.45527950	0.07593573	-0.45562832	0.17330027	0.49570267	-0.63985212	-0.50945044	-0.42370211	-0.69388888	-0.08083727	-0.43990406
6394	63.93000000	-0.93801670	-0.16484505	0.05877192	-0.55746578	0.17826998	-0.72318690	-0.25809366	-0.75517841	-0.25672354	-0.70462859	-0.43540029	0.12619573	-0.67917070	0.46063398	0.08042453	-0.45312655	0.18204155	0.49521684	-0.64992016	-0.51759651	-0.39817541	-0.70253124	-0.08088394	-0.44667703
6395	63.94000000	-0.94410698	-0.16512216	0.05385391	-0.55982007	0.18168489	-0.72117815	-0.24745505	-0.76031048	-0.26382270	-0.71172557	-0.42412372	0.10903783	-0.67383376	0.46049661	0.08490989	-0.45645523	0.18448501	0.49912396	-0.66069709	-0.53512586	-0.36711025	-0.69936312	-0.08483423	-0.44049433
